<svg height="512" viewBox="0 0 256 256" width="512" xmlns="http://www.w3.org/2000/svg"><path d="m113.917 85.606h-33.507a4.533 4.533 0 0 1 -4.5-4.021l-7.015-61.73a4.533 4.533 0 0 1 6.949-4.328l18.877 12.1a4.533 4.533 0 0 0 4.891 0l18.877-12.1a4.533 4.533 0 0 1 6.949 4.328l-7.015 61.73a4.533 4.533 0 0 1 -4.506 4.021z" fill="#63bce7"/><path d="m91.407 81.585-6.874-60.485-8.692-5.57a4.533 4.533 0 0 0 -6.949 4.328l7.015 61.73a4.532 4.532 0 0 0 4.5 4.021h15.5a4.532 4.532 0 0 1 -4.5-4.024z" fill="#6377e7"/><path d="m72.2 64.939h49.928a40 40 0 0 1 40 40v125.288a0 0 0 0 1 0 0h-129.928a0 0 0 0 1 0 0v-125.288a40 40 0 0 1 40-40z" fill="#63bce7"/><path d="m87.7 64.939h-15.5a40 40 0 0 0 -40 40v125.288h15.5v-125.288a40 40 0 0 1 40-40z" fill="#6377e7"/><rect fill="#9e9e9e" height="10.889" rx="3.185" width="68.509" x="62.909" y="54.05"/><path d="m78.409 61.754v-4.52a3.194 3.194 0 0 1 3.185-3.185h-15.5a3.194 3.194 0 0 0 -3.185 3.185v4.52a3.194 3.194 0 0 0 3.185 3.185h15.5a3.194 3.194 0 0 1 -3.185-3.185z" fill="#707070"/><circle cx="97.163" cy="147.583" fill="#f8af23" r="35.908"/><path d="m112.371 147.565v10.435a2.864 2.864 0 0 1 -.915 2.116 2.994 2.994 0 0 1 -2.17.9h-9.186v7.353a2.878 2.878 0 0 1 -.9 2.134 2.923 2.923 0 0 1 -2.117.879 3.006 3.006 0 0 1 -2.183-.882 2.877 2.877 0 0 1 -.9-2.134v-7.424h-9.1a2.92 2.92 0 0 1 -2.116-.879 2.877 2.877 0 0 1 -.9-2.134 3 3 0 0 1 3.013-3.013h21.3v-4.34h-21.228a2.935 2.935 0 0 1 -2.134-.861 2.885 2.885 0 0 1 -.879-2.152v-10.4a3 3 0 0 1 3.013-3.013h9.038v-7.35a2.975 2.975 0 0 1 3.121-3.013 2.866 2.866 0 0 1 2.1.879 2.907 2.907 0 0 1 .879 2.134v7.353h9.254a3 3 0 0 1 2.17.9 2.868 2.868 0 0 1 .915 2.117 3.124 3.124 0 0 1 -3.085 3.085h-21.3v4.3h21.233a3 3 0 0 1 2.17.9 2.867 2.867 0 0 1 .907 2.11z" fill="#3f3679"/><rect fill="#f46275" height="94" rx="10" width="74.144" x="149.656" y="136.227"/><path d="m208.3 220.227v-74a10 10 0 0 0 -10-10h15.5a10 10 0 0 1 10 10v74a10 10 0 0 1 -10 10h-15.5a10 10 0 0 0 10-10z" fill="#f48875"/><path d="m159.103 148.977h55.25v15.25h-55.25z" fill="#63bce7"/><path d="m159.103 173.143h11.919v11.919h-11.919z" fill="#9e9e9e"/><path d="m180.769 173.143h11.919v11.919h-11.919z" fill="#9e9e9e"/><path d="m202.434 173.143h11.919v11.919h-11.919z" fill="#9e9e9e"/><path d="m159.103 190.558h11.919v11.919h-11.919z" fill="#9e9e9e"/><path d="m180.769 190.558h11.919v11.919h-11.919z" fill="#9e9e9e"/><path d="m202.434 190.558h11.919v11.919h-11.919z" fill="#9e9e9e"/><path d="m159.103 207.972h11.919v11.919h-11.919z" fill="#9e9e9e"/><path d="m180.769 207.972h11.919v11.919h-11.919z" fill="#9e9e9e"/><path d="m202.434 207.972h11.919v11.919h-11.919z" fill="#9e9e9e"/><g fill="#3f3679"><path d="m27.323 239.7h-18a1.5 1.5 0 1 0 0 3h18a1.5 1.5 0 1 0 0-3z"/><path d="m246.68 239.7h-18a1.5 1.5 0 0 0 0 3h18a1.5 1.5 0 0 0 0-3z"/><path d="m218.479 239.7h-180.958a1.5 1.5 0 0 0 0 3h180.958a1.5 1.5 0 0 0 0-3z"/><path d="m97.164 110.175a37.408 37.408 0 1 0 37.408 37.408 37.45 37.45 0 0 0 -37.408-37.408zm0 71.815a34.408 34.408 0 1 1 34.408-34.407 34.446 34.446 0 0 1 -34.408 34.407z"/><path d="m131.19 218.052h-16.81a1.5 1.5 0 1 0 0 3h16.81a1.5 1.5 0 0 0 0-3z"/><path d="m162.128 231.727h84.552a1.5 1.5 0 0 0 0-3h-25.161a11.46 11.46 0 0 0 3.782-8.5v-74a11.513 11.513 0 0 0 -11.5-11.5h-50.173v-29.789a41.566 41.566 0 0 0 -31.712-40.323 4.639 4.639 0 0 0 1-2.861v-4.52a4.69 4.69 0 0 0 -4.685-4.685h-5l3.7-32.525a6.032 6.032 0 0 0 -9.249-5.76l-18.882 12.096a3.041 3.041 0 0 1 -3.272 0l-18.878-12.095a6.032 6.032 0 0 0 -9.249 5.76l3.699 32.525h-5a4.69 4.69 0 0 0 -4.685 4.685v4.52a4.638 4.638 0 0 0 1 2.861 41.566 41.566 0 0 0 -31.715 40.322v123.789h-21.38a1.5 1.5 0 1 0 0 3zm60.173-85.5v74a8.51 8.51 0 0 1 -8.5 8.5h-54.145a8.51 8.51 0 0 1 -8.5-8.5v-74a8.51 8.51 0 0 1 8.5-8.5h54.144a8.51 8.51 0 0 1 8.5 8.5zm-151.919-126.54a3.032 3.032 0 0 1 4.649-2.9l18.877 12.1a6.046 6.046 0 0 0 6.509 0l18.883-12.097a3.033 3.033 0 0 1 4.649 2.9l-3.739 32.86h-46.093zm-4.289 43.751a1.687 1.687 0 0 1 -1.685-1.685v-4.52a1.687 1.687 0 0 1 1.685-1.685h62.14a1.687 1.687 0 0 1 1.685 1.685v4.52a1.687 1.687 0 0 1 -1.685 1.685zm-32.393 165.289v-7.981a1.487 1.487 0 0 0 .9.307h62.564a1.5 1.5 0 1 0 0-3h-62.564a1.486 1.486 0 0 0 -.9.307v-113.422a38.544 38.544 0 0 1 38.5-38.5h49.928a38.544 38.544 0 0 1 38.5 38.5v29.788h-.972a11.513 11.513 0 0 0 -11.5 11.5v74a11.46 11.46 0 0 0 3.782 8.5z"/><path d="m157.6 148.977v15.25a1.5 1.5 0 0 0 1.5 1.5h55.25a1.5 1.5 0 0 0 1.5-1.5v-15.25a1.5 1.5 0 0 0 -1.5-1.5h-55.25a1.5 1.5 0 0 0 -1.5 1.5zm3 1.5h52.25v12.25h-52.25z"/><path d="m171.022 171.644h-11.922a1.5 1.5 0 0 0 -1.5 1.5v11.919a1.5 1.5 0 0 0 1.5 1.5h11.919a1.5 1.5 0 0 0 1.5-1.5v-11.919a1.5 1.5 0 0 0 -1.497-1.5zm-1.5 11.919h-8.922v-8.919h8.919z"/><path d="m192.687 171.644h-11.918a1.5 1.5 0 0 0 -1.5 1.5v11.919a1.5 1.5 0 0 0 1.5 1.5h11.919a1.5 1.5 0 0 0 1.5-1.5v-11.919a1.5 1.5 0 0 0 -1.501-1.5zm-1.5 11.919h-8.919v-8.919h8.919z"/><path d="m214.354 171.644h-11.919a1.5 1.5 0 0 0 -1.5 1.5v11.919a1.5 1.5 0 0 0 1.5 1.5h11.919a1.5 1.5 0 0 0 1.5-1.5v-11.919a1.5 1.5 0 0 0 -1.5-1.5zm-1.5 11.919h-8.919v-8.919h8.919z"/><path d="m171.022 189.058h-11.922a1.5 1.5 0 0 0 -1.5 1.5v11.919a1.5 1.5 0 0 0 1.5 1.5h11.919a1.5 1.5 0 0 0 1.5-1.5v-11.919a1.5 1.5 0 0 0 -1.497-1.5zm-1.5 11.919h-8.922v-8.919h8.919z"/><path d="m192.687 189.058h-11.918a1.5 1.5 0 0 0 -1.5 1.5v11.919a1.5 1.5 0 0 0 1.5 1.5h11.919a1.5 1.5 0 0 0 1.5-1.5v-11.919a1.5 1.5 0 0 0 -1.501-1.5zm-1.5 11.919h-8.919v-8.919h8.919z"/><path d="m214.354 189.058h-11.919a1.5 1.5 0 0 0 -1.5 1.5v11.919a1.5 1.5 0 0 0 1.5 1.5h11.919a1.5 1.5 0 0 0 1.5-1.5v-11.919a1.5 1.5 0 0 0 -1.5-1.5zm-1.5 11.919h-8.919v-8.919h8.919z"/><path d="m171.022 206.472h-11.922a1.5 1.5 0 0 0 -1.5 1.5v11.919a1.5 1.5 0 0 0 1.5 1.5h11.919a1.5 1.5 0 0 0 1.5-1.5v-11.919a1.5 1.5 0 0 0 -1.497-1.5zm-1.5 11.919h-8.922v-8.919h8.919z"/><path d="m192.687 206.472h-11.918a1.5 1.5 0 0 0 -1.5 1.5v11.919a1.5 1.5 0 0 0 1.5 1.5h11.919a1.5 1.5 0 0 0 1.5-1.5v-11.919a1.5 1.5 0 0 0 -1.501-1.5zm-1.5 11.919h-8.919v-8.919h8.919z"/><path d="m214.354 206.472h-11.919a1.5 1.5 0 0 0 -1.5 1.5v11.919a1.5 1.5 0 0 0 1.5 1.5h11.919a1.5 1.5 0 0 0 1.5-1.5v-11.919a1.5 1.5 0 0 0 -1.5-1.5zm-1.5 11.919h-8.919v-8.919h8.919z"/></g></svg>