<svg id="Capa_1" enable-background="new 0 0 507.179 507.179" height="512" viewBox="0 0 507.179 507.179" width="512" xmlns="http://www.w3.org/2000/svg"><g><g><g><path d="m460.572 499.679h-406.852c-16.49 0-29.858-13.368-29.858-29.858v-390.693c0-16.49 13.368-29.858 29.858-29.858h399.738c16.49 0 29.858 13.368 29.858 29.858v397.807c0 12.561-10.183 22.744-22.744 22.744z" fill="#fdfcfc"/></g></g><g><g><path d="m453.458 49.27h-30c16.49 0 29.858 13.368 29.858 29.858v397.807c0 12.561-10.183 22.745-22.745 22.745h30c12.562 0 22.745-10.183 22.745-22.745v-397.807c0-16.49-13.367-29.858-29.858-29.858z" fill="#f1f1f1"/></g></g><g><g><path d="m483.316 134.594v-55.466c0-16.49-13.368-29.858-29.858-29.858h-399.737c-16.49 0-29.858 13.368-29.858 29.858v55.466z" fill="#4981f8"/></g></g><g><g><path d="m453.458 49.27h-30c16.49 0 29.858 13.368 29.858 29.858v55.466h30v-55.466c0-16.49-13.367-29.858-29.858-29.858z" fill="#4071f7"/></g></g><g><g><path d="m85.949 94.191c-11.478 0-20.782-9.304-20.782-20.782v-45.127c0-11.478 9.305-20.782 20.782-20.782 11.478 0 20.782 9.304 20.782 20.782v45.127c0 11.478-9.304 20.782-20.782 20.782z" fill="#bed9fd"/></g></g><g><g><path d="m171.124 94.191c-11.478 0-20.782-9.304-20.782-20.782v-45.127c0-11.478 9.305-20.782 20.782-20.782 11.478 0 20.782 9.304 20.782 20.782v45.127c0 11.478-9.305 20.782-20.782 20.782z" fill="#bed9fd"/></g></g><g><g><path d="m256.298 94.191c-11.478 0-20.782-9.304-20.782-20.782v-45.127c0-11.478 9.305-20.782 20.782-20.782 11.478 0 20.782 9.304 20.782 20.782v45.127c0 11.478-9.304 20.782-20.782 20.782z" fill="#bed9fd"/></g></g><g><g><path d="m341.473 94.191c-11.478 0-20.782-9.304-20.782-20.782v-45.127c0-11.478 9.305-20.782 20.782-20.782 11.478 0 20.782 9.304 20.782 20.782v45.127c0 11.478-9.304 20.782-20.782 20.782z" fill="#bed9fd"/></g></g><g><g><path d="m423.23 94.191c-11.478 0-20.782-9.304-20.782-20.782v-45.127c0-11.478 9.305-20.782 20.782-20.782 11.478 0 20.782 9.304 20.782 20.782v45.127c0 11.478-9.305 20.782-20.782 20.782z" fill="#bed9fd"/></g></g><g><g><path d="m118.279 242.053h-37.455c-6.76 0-12.24-5.48-12.24-12.24v-37.455c0-6.76 5.48-12.24 12.24-12.24h37.455c6.76 0 12.24 5.48 12.24 12.24v37.455c0 6.76-5.48 12.24-12.24 12.24z" fill="#faf0b0"/></g></g><g><g><path d="m222.777 242.053h-37.455c-6.76 0-12.24-5.48-12.24-12.24v-37.455c0-6.76 5.48-12.24 12.24-12.24h37.455c6.76 0 12.24 5.48 12.24 12.24v37.455c0 6.76-5.48 12.24-12.24 12.24z" fill="#faf0b0"/></g></g><g><g><path d="m327.275 242.053h-37.455c-6.76 0-12.24-5.48-12.24-12.24v-37.455c0-6.76 5.48-12.24 12.24-12.24h37.455c6.76 0 12.24 5.48 12.24 12.24v37.455c-.001 6.76-5.481 12.24-12.24 12.24z" fill="#faf0b0"/></g></g><g><g><path d="m431.772 242.053h-37.455c-6.76 0-12.24-5.48-12.24-12.24v-37.455c0-6.76 5.48-12.24 12.24-12.24h37.455c6.76 0 12.24 5.48 12.24 12.24v37.455c0 6.76-5.48 12.24-12.24 12.24z" fill="#faf0b0"/></g></g><g><g><path d="m118.279 339.665h-37.455c-6.76 0-12.24-5.48-12.24-12.24v-37.455c0-6.76 5.48-12.24 12.24-12.24h37.455c6.76 0 12.24 5.48 12.24 12.24v37.455c0 6.76-5.48 12.24-12.24 12.24z" fill="#e6989e"/></g></g><g><g><path d="m222.777 339.665h-37.455c-6.76 0-12.24-5.48-12.24-12.24v-37.455c0-6.76 5.48-12.24 12.24-12.24h37.455c6.76 0 12.24 5.48 12.24 12.24v37.455c0 6.76-5.48 12.24-12.24 12.24z" fill="#e6989e"/></g></g><g><g><path d="m327.275 339.665h-37.455c-6.76 0-12.24-5.48-12.24-12.24v-37.455c0-6.76 5.48-12.24 12.24-12.24h37.455c6.76 0 12.24 5.48 12.24 12.24v37.455c-.001 6.76-5.481 12.24-12.24 12.24z" fill="#fdfcfc"/></g></g><g><g><path d="m431.772 339.665h-37.455c-6.76 0-12.24-5.48-12.24-12.24v-37.455c0-6.76 5.48-12.24 12.24-12.24h37.455c6.76 0 12.24 5.48 12.24 12.24v37.455c0 6.76-5.48 12.24-12.24 12.24z" fill="#fdfcfc"/></g></g><g><g><path d="m118.279 437.276h-37.455c-6.76 0-12.24-5.48-12.24-12.24v-37.455c0-6.76 5.48-12.24 12.24-12.24h37.455c6.76 0 12.24 5.48 12.24 12.24v37.455c0 6.76-5.48 12.24-12.24 12.24z" fill="#fdfcfc"/></g></g><g><g><path d="m222.777 437.276h-37.455c-6.76 0-12.24-5.48-12.24-12.24v-37.455c0-6.76 5.48-12.24 12.24-12.24h37.455c6.76 0 12.24 5.48 12.24 12.24v37.455c0 6.76-5.48 12.24-12.24 12.24z" fill="#fdfcfc"/></g></g><g><g><path d="m327.275 437.276h-37.455c-6.76 0-12.24-5.48-12.24-12.24v-37.455c0-6.76 5.48-12.24 12.24-12.24h37.455c6.76 0 12.24 5.48 12.24 12.24v37.455c-.001 6.76-5.481 12.24-12.24 12.24z" fill="#77d1b3"/></g></g><g><g><path d="m431.772 437.276h-37.455c-6.76 0-12.24-5.48-12.24-12.24v-37.455c0-6.76 5.48-12.24 12.24-12.24h37.455c6.76 0 12.24 5.48 12.24 12.24v37.455c0 6.76-5.48 12.24-12.24 12.24z" fill="#77d1b3"/></g></g><g><g><path d="m118.279 180.118h-30c6.76 0 12.24 5.48 12.24 12.24v37.455c0 6.76-5.48 12.24-12.24 12.24h30c6.76 0 12.24-5.48 12.24-12.24v-37.455c0-6.76-5.48-12.24-12.24-12.24z" fill="#f8e883"/></g></g><g><g><path d="m222.777 180.118h-30c6.76 0 12.24 5.48 12.24 12.24v37.455c0 6.76-5.48 12.24-12.24 12.24h30c6.76 0 12.24-5.48 12.24-12.24v-37.455c0-6.76-5.48-12.24-12.24-12.24z" fill="#f8e883"/></g></g><g><g><path d="m327.274 180.118h-30c6.76 0 12.24 5.48 12.24 12.24v37.455c0 6.76-5.48 12.24-12.24 12.24h30c6.76 0 12.24-5.48 12.24-12.24v-37.455c0-6.76-5.48-12.24-12.24-12.24z" fill="#f8e883"/></g></g><g><g><path d="m431.772 180.118h-30c6.76 0 12.24 5.48 12.24 12.24v37.455c0 6.76-5.48 12.24-12.24 12.24h30c6.76 0 12.24-5.48 12.24-12.24v-37.455c0-6.76-5.48-12.24-12.24-12.24z" fill="#f8e883"/></g></g><g><g><path d="m118.279 277.73h-30c6.76 0 12.24 5.48 12.24 12.24v37.455c0 6.76-5.48 12.24-12.24 12.24h30c6.76 0 12.24-5.48 12.24-12.24v-37.455c0-6.76-5.48-12.24-12.24-12.24z" fill="#e27f86"/></g></g><g><g><path d="m222.777 277.73h-30c6.76 0 12.24 5.48 12.24 12.24v37.455c0 6.76-5.48 12.24-12.24 12.24h30c6.76 0 12.24-5.48 12.24-12.24v-37.455c0-6.76-5.48-12.24-12.24-12.24z" fill="#e27f86"/></g></g><g><g><path d="m327.274 277.73h-30c6.76 0 12.24 5.48 12.24 12.24v37.455c0 6.76-5.48 12.24-12.24 12.24h30c6.76 0 12.24-5.48 12.24-12.24v-37.455c0-6.76-5.48-12.24-12.24-12.24z" fill="#f1f1f1"/></g></g><g><g><path d="m431.772 277.73h-30c6.76 0 12.24 5.48 12.24 12.24v37.455c0 6.76-5.48 12.24-12.24 12.24h30c6.76 0 12.24-5.48 12.24-12.24v-37.455c0-6.76-5.48-12.24-12.24-12.24z" fill="#f1f1f1"/></g></g><g><g><path d="m118.279 375.342h-30c6.76 0 12.24 5.479 12.24 12.24v37.455c0 6.76-5.48 12.24-12.24 12.24h30c6.76 0 12.24-5.48 12.24-12.24v-37.455c0-6.761-5.48-12.24-12.24-12.24z" fill="#f1f1f1"/></g></g><g><g><path d="m222.777 375.342h-30c6.76 0 12.24 5.479 12.24 12.24v37.455c0 6.76-5.48 12.24-12.24 12.24h30c6.76 0 12.24-5.48 12.24-12.24v-37.455c0-6.761-5.48-12.24-12.24-12.24z" fill="#f1f1f1"/></g></g><g><g><path d="m327.274 375.342h-30c6.76 0 12.24 5.479 12.24 12.24v37.455c0 6.76-5.48 12.24-12.24 12.24h30c6.76 0 12.24-5.48 12.24-12.24v-37.455c0-6.761-5.48-12.24-12.24-12.24z" fill="#67b59f"/></g></g><g><g><path d="m431.772 375.342h-30c6.76 0 12.24 5.479 12.24 12.24v37.455c0 6.76-5.48 12.24-12.24 12.24h30c6.76 0 12.24-5.48 12.24-12.24v-37.455c0-6.761-5.48-12.24-12.24-12.24z" fill="#67b59f"/></g></g><g><path d="m80.825 249.553h37.455c10.884 0 19.739-8.855 19.739-19.74v-37.455c0-10.885-8.855-19.74-19.739-19.74h-37.455c-10.885 0-19.74 8.855-19.74 19.74v37.455c-.001 10.885 8.855 19.74 19.74 19.74zm-4.741-57.195c0-2.613 2.126-4.74 4.74-4.74h37.455c2.613 0 4.739 2.126 4.739 4.74v37.455c0 2.613-2.126 4.74-4.739 4.74h-37.454c-2.614 0-4.74-2.126-4.74-4.74v-37.455z"/><path d="m185.322 249.553h37.455c10.885 0 19.74-8.855 19.74-19.74v-37.455c0-10.885-8.855-19.74-19.74-19.74h-37.455c-10.884 0-19.739 8.855-19.739 19.74v37.455c-.001 10.885 8.855 19.74 19.739 19.74zm-4.74-57.195c0-2.613 2.126-4.74 4.739-4.74h37.455c2.614 0 4.74 2.126 4.74 4.74v37.455c0 2.613-2.126 4.74-4.74 4.74h-37.455c-2.613 0-4.739-2.126-4.739-4.74z"/><path d="m289.82 249.553h37.455c10.884 0 19.739-8.855 19.739-19.74v-37.455c0-10.885-8.855-19.74-19.739-19.74h-37.455c-10.885 0-19.74 8.855-19.74 19.74v37.455c-.001 10.885 8.855 19.74 19.74 19.74zm-4.741-57.195c0-2.613 2.126-4.74 4.74-4.74h37.455c2.613 0 4.739 2.126 4.739 4.74v37.455c0 2.613-2.126 4.74-4.739 4.74h-37.454c-2.614 0-4.74-2.126-4.74-4.74v-37.455z"/><path d="m394.318 249.553h37.454c10.885 0 19.74-8.855 19.74-19.74v-37.455c0-10.885-8.855-19.74-19.74-19.74h-37.454c-10.885 0-19.74 8.855-19.74 19.74v37.455c-.001 10.885 8.855 19.74 19.74 19.74zm-4.741-57.195c0-2.613 2.126-4.74 4.74-4.74h37.454c2.614 0 4.74 2.126 4.74 4.74v37.455c0 2.613-2.126 4.74-4.74 4.74h-37.454c-2.614 0-4.74-2.126-4.74-4.74z"/><path d="m61.084 327.425c0 10.885 8.855 19.74 19.74 19.74h37.455c10.884 0 19.739-8.855 19.739-19.74v-37.455c0-10.885-8.855-19.74-19.739-19.74h-37.454c-10.885 0-19.74 8.855-19.74 19.74v37.455zm15-37.455c0-2.613 2.126-4.74 4.74-4.74h37.455c2.613 0 4.739 2.126 4.739 4.74v37.455c0 2.613-2.126 4.74-4.739 4.74h-37.454c-2.614 0-4.74-2.127-4.74-4.74v-37.455z"/><path d="m165.582 327.425c0 10.885 8.855 19.74 19.739 19.74h37.455c10.885 0 19.74-8.855 19.74-19.74v-37.455c0-10.885-8.855-19.74-19.74-19.74h-37.455c-10.884 0-19.739 8.855-19.739 19.74zm15-37.455c0-2.613 2.126-4.74 4.739-4.74h37.455c2.614 0 4.74 2.126 4.74 4.74v37.455c0 2.613-2.126 4.74-4.74 4.74h-37.455c-2.613 0-4.739-2.127-4.739-4.74z"/><path d="m270.079 327.425c0 10.885 8.855 19.74 19.74 19.74h37.455c10.884 0 19.739-8.855 19.739-19.74v-37.455c0-10.885-8.855-19.74-19.739-19.74h-37.454c-10.885 0-19.74 8.855-19.74 19.74v37.455zm15-37.455c0-2.613 2.126-4.74 4.74-4.74h37.455c2.613 0 4.739 2.126 4.739 4.74v37.455c0 2.613-2.126 4.74-4.739 4.74h-37.454c-2.614 0-4.74-2.127-4.74-4.74v-37.455z"/><path d="m374.577 327.425c0 10.885 8.855 19.74 19.74 19.74h37.454c10.885 0 19.74-8.855 19.74-19.74v-37.455c0-10.885-8.855-19.74-19.74-19.74h-37.454c-10.885 0-19.74 8.855-19.74 19.74zm15-37.455c0-2.613 2.126-4.74 4.74-4.74h37.454c2.614 0 4.74 2.126 4.74 4.74v37.455c0 2.613-2.126 4.74-4.74 4.74h-37.454c-2.614 0-4.74-2.127-4.74-4.74z"/><path d="m61.084 425.036c0 10.885 8.855 19.74 19.74 19.74h37.455c10.884 0 19.739-8.855 19.739-19.74v-37.455c0-10.885-8.855-19.74-19.739-19.74h-37.454c-10.885 0-19.74 8.855-19.74 19.74v37.455zm15-37.454c0-2.613 2.126-4.74 4.74-4.74h37.455c2.613 0 4.739 2.126 4.739 4.74v37.455c0 2.614-2.126 4.74-4.739 4.74h-37.454c-2.614 0-4.74-2.126-4.74-4.74v-37.455z"/><path d="m165.582 425.036c0 10.885 8.855 19.74 19.739 19.74h37.455c10.885 0 19.74-8.855 19.74-19.74v-37.455c0-10.885-8.855-19.74-19.74-19.74h-37.455c-10.884 0-19.739 8.855-19.739 19.74zm15-37.454c0-2.613 2.126-4.74 4.739-4.74h37.455c2.614 0 4.74 2.126 4.74 4.74v37.455c0 2.614-2.126 4.74-4.74 4.74h-37.455c-2.613 0-4.739-2.126-4.739-4.74z"/><path d="m270.079 425.036c0 10.885 8.855 19.74 19.74 19.74h37.455c10.884 0 19.739-8.855 19.739-19.74v-37.455c0-10.885-8.855-19.74-19.739-19.74h-37.454c-10.885 0-19.74 8.855-19.74 19.74v37.455zm15-37.454c0-2.613 2.126-4.74 4.74-4.74h37.455c2.613 0 4.739 2.126 4.739 4.74v37.455c0 2.614-2.126 4.74-4.739 4.74h-37.454c-2.614 0-4.74-2.126-4.74-4.74v-37.455z"/><path d="m374.577 425.036c0 10.885 8.855 19.74 19.74 19.74h37.454c10.885 0 19.74-8.855 19.74-19.74v-37.455c0-10.885-8.855-19.74-19.74-19.74h-37.454c-10.885 0-19.74 8.855-19.74 19.74zm15-37.454c0-2.613 2.126-4.74 4.74-4.74h37.454c2.614 0 4.74 2.126 4.74 4.74v37.455c0 2.614-2.126 4.74-4.74 4.74h-37.454c-2.614 0-4.74-2.126-4.74-4.74z"/><path d="m483.317 459.776c-4.142 0-7.5 3.358-7.5 7.5v9.658c0 8.406-6.839 15.245-15.245 15.245h-406.852c-12.328 0-22.358-10.03-22.358-22.358v-181.948c0-4.142-3.357-7.5-7.5-7.5-4.142 0-7.5 3.358-7.5 7.5v181.948c0 20.599 16.759 37.358 37.357 37.358h406.852c16.678 0 30.245-13.568 30.245-30.245v-9.658c.001-4.142-3.357-7.5-7.499-7.5z"/><path d="m453.458 41.77h-1.946v-13.488c0-15.594-12.687-28.282-28.282-28.282s-28.282 12.688-28.282 28.282v13.488h-25.192v-13.488c-.001-15.594-12.688-28.282-28.283-28.282s-28.282 12.688-28.282 28.282v13.488h-28.61v-13.488c-.001-15.594-12.688-28.282-28.283-28.282s-28.282 12.688-28.282 28.282v13.488h-28.61v-13.488c0-15.594-12.688-28.282-28.283-28.282s-28.282 12.688-28.282 28.282v13.488h-28.609v-13.488c0-15.594-12.688-28.282-28.282-28.282-15.595 0-28.283 12.688-28.283 28.282v13.488h-3.946c-20.6 0-37.358 16.759-37.358 37.358v178.745c0 4.142 3.358 7.5 7.5 7.5 4.143 0 7.5-3.358 7.5-7.5v-115.779h444.454v295.183c0 4.142 3.358 7.5 7.5 7.5 4.143 0 7.5-3.358 7.5-7.5v-358.149c0-20.6-16.759-37.358-37.359-37.358zm-43.51-13.488c0-7.324 5.958-13.282 13.282-13.282s13.282 5.958 13.282 13.282v45.127c0 7.324-5.958 13.282-13.282 13.282s-13.282-5.958-13.282-13.282zm-81.757 0c0-7.324 5.958-13.282 13.282-13.282s13.282 5.958 13.282 13.282v45.127c0 7.324-5.958 13.282-13.282 13.282s-13.282-5.958-13.282-13.282zm-85.175 0c0-7.324 5.958-13.282 13.282-13.282s13.282 5.958 13.282 13.282v45.127c0 7.324-5.958 13.282-13.282 13.282s-13.282-5.958-13.282-13.282zm-85.175 0c0-7.324 5.958-13.282 13.282-13.282s13.282 5.958 13.282 13.282v45.127c0 7.324-5.958 13.282-13.282 13.282s-13.282-5.958-13.282-13.282zm-85.174 0c0-7.324 5.958-13.282 13.283-13.282 7.324 0 13.282 5.958 13.282 13.282v45.127c0 7.324-5.958 13.282-13.282 13.282s-13.282-5.958-13.282-13.282v-45.127zm-41.304 98.812v-47.966c0-12.329 10.03-22.358 22.358-22.358h3.946v16.64c0 15.595 12.688 28.282 28.282 28.282 15.595 0 28.282-12.688 28.282-28.282v-16.64h28.609v16.64c0 15.595 12.688 28.282 28.282 28.282s28.282-12.688 28.282-28.282v-16.64h28.61v16.64c0 15.595 12.688 28.282 28.282 28.282s28.282-12.688 28.282-28.282v-16.64h28.61v16.64c0 15.595 12.688 28.282 28.282 28.282 15.595 0 28.282-12.688 28.282-28.282v-16.64h25.192v16.64c0 15.595 12.688 28.282 28.282 28.282 15.595 0 28.282-12.688 28.282-28.282v-16.64h1.946c12.328 0 22.358 10.03 22.358 22.358v47.966z"/></g></g></svg>